<svg xmlns="http://www.w3.org/2000/svg" version="1.1" viewBox="239 232 1291 1291"><circle cx="884.5" cy="877.5" r="640.5" fill="#ffffff"/>
<g id="orbits" fill="#452b60" stroke="#452b60" stroke-width="12" stroke-linejoin="round" stroke-linecap="round"><path d=" M 1360.39 509.47 A 0.36 0.36 0.0 0 1 1359.84 509.81 Q 1342.09 498.20 1321.91 491.64 C 1320.84 491.29 1318.88 489.68 1317.87 488.57 C 1290.40 458.43 1260.84 430.70 1228.08 406.19 Q 1149.99 347.79 1056.00 319.03 Q 1010.56 305.12 963.45 298.38 A 1.30 1.29 -88.6 0 1 962.34 297.21 L 960.81 279.19 A 0.72 0.71 -88.7 0 1 961.61 278.42 C 1047.09 289.30 1129.40 318.44 1202.27 364.04 Q 1293.41 421.08 1359.69 507.83 Q 1360.30 508.63 1360.39 509.47 Z"/><path d=" M 467.81 445.94 A 0.38 0.38 0.0 0 1 467.55 445.29 C 536.36 377.62 619.18 327.58 711.73 299.98 Q 760.73 285.38 811.07 279.17 A 0.63 0.62 84.3 0 1 811.77 279.75 L 813.33 298.12 A 0.84 0.83 83.5 0 1 812.62 299.02 Q 787.19 302.58 767.59 306.64 Q 613.29 338.67 497.54 444.83 A 4.24 4.21 23.6 0 1 494.68 445.94 L 467.81 445.94 Z"/><path d=" M 782.99 691.32 A 0.88 0.88 0.0 0 1 782.48 689.72 Q 824.61 660.97 868.42 635.36 A 0.87 0.87 0.0 0 0 868.38 633.83 C 817.53 607.45 765.73 583.35 712.27 563.81 A 0.80 0.80 0.0 0 0 711.22 564.35 C 698.49 611.07 690.78 658.94 684.32 706.76 Q 681.19 729.88 677.36 762.75 A 0.62 0.62 0.0 0 0 678.35 763.32 L 741.62 715.00 A 0.60 0.59 -18.7 0 1 742.58 715.47 L 742.58 742.25 A 4.54 4.52 72.6 0 1 740.64 745.97 Q 708.21 768.61 677.82 794.17 A 3.77 3.77 0.0 0 0 676.48 796.85 Q 671.51 882.13 678.09 967.25 Q 679.19 981.56 679.91 986.09 Q 680.21 987.94 682.18 989.35 Q 687.19 992.92 734.87 1026.38 Q 735.55 1026.85 735.80 1027.41 A 0.63 0.63 0.0 0 1 735.23 1028.29 Q 725.67 1028.41 704.51 1028.32 Q 701.89 1028.31 699.99 1027.00 Q 693.77 1022.71 684.23 1015.90 A 0.89 0.89 0.0 0 0 682.82 1016.70 L 683.73 1027.38 A 2.11 2.11 0.0 0 1 682.43 1029.51 C 679.22 1030.83 676.97 1032.08 674.48 1034.59 Q 666.34 1042.80 664.26 1044.56 A 0.98 0.98 0.0 0 1 662.65 1043.89 L 658.53 995.40 A 3.93 3.91 16.6 0 0 657.02 992.62 Q 605.17 952.51 558.99 905.73 A 1.20 1.20 0.0 0 0 557.26 905.76 C 531.55 933.63 507.11 962.57 485.89 991.23 C 475.72 1004.98 466.53 1019.37 457.20 1033.82 A 1.27 1.27 0.0 0 1 455.47 1034.22 L 438.21 1023.69 A 1.05 1.04 32.1 0 1 437.87 1022.24 C 467.76 974.77 503.66 931.31 542.61 889.90 A 0.93 0.92 -45.7 0 0 542.60 888.62 Q 513.06 858.82 485.18 826.09 Q 452.57 787.81 426.45 743.30 Q 414.88 723.57 409.03 711.24 Q 398.88 689.84 392.52 667.02 Q 385.48 641.74 385.19 620.46 Q 384.72 585.51 400.15 553.40 C 401.83 549.91 403.94 550.15 405.98 553.12 C 408.89 557.37 413.20 563.06 410.72 567.47 Q 406.62 574.79 404.98 580.69 C 392.96 623.90 403.77 668.71 423.47 708.30 C 455.20 772.06 502.49 827.54 552.62 877.71 A 1.20 1.20 0.0 0 0 554.35 877.67 Q 592.39 836.14 634.48 800.97 Q 647.80 789.84 656.25 783.01 Q 659.28 780.56 659.60 776.51 Q 663.42 727.99 672.88 672.31 Q 682.48 615.86 698.47 560.17 A 1.12 1.12 0.0 0 0 697.74 558.80 Q 649.94 543.23 602.82 534.40 Q 575.78 529.33 547.42 528.08 Q 544.86 527.96 544.86 525.25 Q 544.87 515.93 544.91 514.83 A 1.74 1.73 2.4 0 1 546.74 513.16 Q 563.25 514.01 581.49 516.79 Q 621.32 522.86 660.96 534.11 Q 680.42 539.64 700.47 546.09 C 702.97 546.89 703.26 544.81 703.93 542.58 Q 717.75 497.14 735.60 456.35 C 756.25 409.18 783.71 365.07 820.09 328.60 Q 822.22 326.46 824.04 328.63 Q 826.52 331.57 828.62 335.83 Q 829.88 338.39 827.73 340.49 Q 801.93 365.71 783.78 393.19 Q 767.71 417.54 750.83 453.48 Q 729.23 499.47 715.86 549.99 A 1.34 1.34 0.0 0 0 716.73 551.60 Q 804.18 580.80 886.33 623.30 A 2.58 2.57 43.8 0 0 888.80 623.25 Q 964.89 580.06 1046.84 548.99 A 1.03 1.02 -19.6 0 0 1047.45 547.71 Q 1036.95 516.17 1034.64 509.35 Q 1017.86 459.78 990.85 409.94 Q 971.15 373.58 943.32 343.73 A 1.73 1.73 0.0 0 1 943.35 341.34 Q 951.64 332.95 956.69 322.47 A 1.75 1.75 0.0 0 1 959.50 321.98 C 995.48 357.47 1020.69 399.54 1042.22 446.49 Q 1059.15 483.39 1071.43 521.78 Q 1072.87 526.28 1076.35 537.02 A 0.83 0.82 -18.5 0 0 1077.40 537.54 Q 1141.10 515.18 1207.98 507.16 Q 1246.34 502.56 1285.01 507.18 C 1318.78 511.21 1358.77 527.48 1373.69 560.54 Q 1377.04 567.97 1379.91 575.34 A 0.72 0.72 0.0 0 1 1379.30 576.31 L 1360.27 577.93 A 2.06 2.03 -20.2 0 1 1358.46 577.11 Q 1357.46 575.77 1355.93 572.85 Q 1354.04 569.24 1349.01 562.26 Q 1337.41 546.13 1316.98 539.02 C 1290.40 529.76 1261.97 528.09 1234.75 530.70 Q 1157.66 538.08 1084.48 563.73 A 1.23 1.22 -17.2 0 0 1083.70 565.20 C 1097.48 616.12 1108.18 668.98 1114.07 722.05 Q 1117.81 755.80 1118.99 768.25 C 1119.40 772.55 1119.79 773.79 1123.35 776.61 Q 1173.21 816.06 1218.52 860.69 A 1.37 1.37 0.0 0 0 1220.49 860.65 C 1257.59 820.49 1291.43 777.25 1319.35 730.10 Q 1325.39 719.90 1329.45 710.93 A 0.92 0.92 0.0 0 1 1330.71 710.49 Q 1343.66 717.15 1357.05 719.58 A 1.40 1.40 0.0 0 1 1358.06 721.57 Q 1345.09 748.05 1328.46 772.72 Q 1289.61 830.35 1242.12 880.96 A 1.83 1.83 0.0 0 0 1242.15 883.50 Q 1297.54 939.42 1340.19 1007.05 Q 1354.91 1030.39 1367.85 1059.13 C 1380.93 1088.18 1388.56 1118.64 1388.15 1151.02 C 1387.71 1184.96 1374.75 1216.37 1345.99 1235.47 Q 1332.15 1244.66 1316.47 1249.01 A 1.10 1.09 -10.3 0 1 1315.08 1248.05 L 1313.14 1225.24 A 2.15 2.15 0.0 0 1 1314.57 1223.03 Q 1319.68 1221.25 1324.57 1219.13 C 1348.67 1208.72 1360.40 1188.78 1362.63 1163.48 Q 1364.34 1144.07 1360.54 1125.72 C 1355.35 1100.73 1345.23 1076.23 1333.32 1054.93 Q 1300.87 996.94 1256.75 946.25 Q 1237.61 924.26 1220.39 905.80 A 1.64 1.63 45.8 0 0 1218.04 905.76 Q 1171.91 951.94 1120.58 992.82 C 1119.42 993.74 1119.30 995.49 1119.18 997.05 Q 1110.84 1098.52 1085.50 1197.12 A 1.47 1.46 -73.9 0 0 1086.47 1198.89 Q 1124.01 1210.84 1162.25 1219.19 Q 1162.45 1219.23 1163.69 1219.38 Q 1165.64 1219.60 1165.25 1221.75 Q 1162.52 1236.73 1160.84 1246.52 A 1.05 1.05 0.0 0 1 1159.58 1247.36 Q 1117.90 1238.14 1078.54 1224.01 A 1.15 1.15 0.0 0 0 1077.06 1224.77 Q 1072.37 1240.60 1071.72 1242.78 Q 1052.61 1306.62 1019.02 1366.02 Q 995.55 1407.54 960.94 1440.51 A 0.67 0.67 0.0 0 1 959.90 1440.37 L 949.17 1422.66 A 1.20 1.19 -35.9 0 1 949.42 1421.14 C 957.09 1414.58 963.16 1409.17 969.50 1401.30 Q 996.07 1368.33 1013.35 1330.85 Q 1038.81 1275.65 1054.94 1216.61 A 0.66 0.66 0.0 0 0 1054.52 1215.81 C 1005.08 1199.13 957.83 1178.29 911.68 1154.33 Q 904.88 1150.80 896.66 1145.79 A 1.98 1.97 45.1 0 0 894.62 1145.78 L 881.60 1153.67 A 1.44 1.42 57.1 0 1 879.68 1153.25 Q 879.23 1152.60 879.23 1151.75 Q 879.10 1130.55 879.25 1116.00 Q 879.26 1114.99 879.41 1114.53 A 1.24 1.24 0.0 0 1 881.23 1113.87 L 887.34 1117.60 A 2.38 2.37 45.9 0 0 889.72 1117.64 Q 941.01 1089.23 989.69 1056.45 Q 991.32 1055.35 994.01 1055.34 Q 1016.44 1055.28 1035.65 1055.36 A 0.85 0.85 0.0 0 1 1036.40 1056.61 Q 1036.00 1057.35 1035.03 1058.05 Q 981.63 1096.45 921.84 1130.77 A 1.16 1.16 0.0 0 0 921.91 1132.82 Q 989.30 1165.30 1059.74 1190.29 Q 1061.84 1191.03 1062.38 1188.59 Q 1074.80 1132.58 1081.92 1080.74 Q 1085.97 1051.23 1089.23 1019.98 Q 1089.31 1019.15 1089.17 1018.83 A 0.63 0.63 0.0 0 0 1088.21 1018.59 L 1053.82 1044.83 A 1.18 1.18 0.0 0 1 1051.97 1044.23 L 1043.93 1017.64 A 1.38 1.38 0.0 0 1 1044.41 1016.14 Q 1049.29 1012.38 1090.10 981.14 C 1091.36 980.17 1091.37 977.79 1091.49 976.15 Q 1098.37 884.01 1090.18 789.51 Q 1089.93 786.58 1088.42 785.33 Q 1060.30 761.84 1021.34 732.89 Q 978.65 701.17 934.19 673.56 Q 915.26 661.81 895.61 650.20 A 2.51 2.48 44.5 0 0 893.05 650.21 L 827.54 689.89 A 4.88 4.84 -60.7 0 1 825.12 690.58 L 782.99 691.32 Z M 1084.39 747.28 A 0.70 0.70 0.0 0 0 1085.55 746.69 Q 1082.89 718.56 1077.64 687.52 Q 1067.99 630.43 1054.98 575.74 A 0.73 0.73 0.0 0 0 1054.02 575.23 Q 983.79 601.30 917.61 636.54 A 1.21 1.20 -40.1 0 0 917.43 638.56 Q 918.46 639.35 920.04 640.23 C 972.89 669.61 1025.52 702.43 1072.85 737.90 Q 1078.36 742.03 1084.39 747.28 Z M 656.36 810.96 A 1.36 1.32 20.9 0 0 655.52 811.32 L 569.23 892.42 A 1.09 1.09 0.0 0 0 569.23 894.02 Q 610.97 932.96 655.69 968.65 A 0.98 0.97 30.3 0 0 657.19 968.26 Q 657.43 967.69 657.39 967.01 Q 654.72 927.42 654.27 887.75 Q 653.87 852.88 657.50 812.19 Q 657.62 810.89 656.36 810.96 Z M 1198.71 882.78 L 1123.40 813.17 A 0.74 0.74 0.0 0 0 1122.30 813.28 Q 1121.98 813.71 1122.01 814.25 Q 1125.29 874.30 1123.10 926.94 Q 1122.52 940.83 1121.22 953.65 A 1.13 1.13 0.0 0 0 1123.12 954.59 L 1198.71 883.55 A 0.53 0.52 45.3 0 0 1198.71 882.78 Z"/><path d=" M 325.85 1096.33 A 0.58 0.57 -48.2 0 1 324.87 1096.39 Q 323.35 1094.24 322.16 1091.12 Q 310.87 1061.68 301.68 1028.15 C 267.29 902.75 278.94 766.89 330.90 648.09 Q 346.74 611.89 364.69 580.12 A 0.72 0.72 0.0 0 1 366.03 580.35 Q 366.14 580.97 366.03 581.51 Q 361.61 603.39 363.08 624.51 Q 363.24 626.85 361.95 629.45 C 329.49 694.83 309.61 764.77 304.28 836.62 C 300.68 885.16 302.78 935.18 312.19 983.66 Q 319.86 1023.14 332.21 1060.85 A 6.59 6.56 -43.5 0 1 332.08 1065.31 Q 327.47 1077.04 326.14 1095.01 Q 326.07 1095.91 325.85 1096.33 Z"/><path d=" M 1446.52 662.26 A 0.72 0.72 0.0 0 1 1447.80 662.39 C 1480.00 744.89 1494.60 835.28 1488.62 923.22 C 1482.55 1012.45 1455.26 1101.81 1409.34 1179.11 Q 1408.40 1180.69 1407.18 1181.96 A 0.86 0.86 0.0 0 1 1405.77 1181.69 Q 1405.52 1181.08 1405.69 1180.25 Q 1409.63 1159.81 1409.77 1140.75 C 1409.79 1137.73 1410.54 1134.59 1411.99 1131.61 Q 1445.90 1061.61 1460.39 985.21 Q 1461.65 978.60 1464.04 963.43 C 1476.28 885.93 1469.81 806.63 1449.17 731.31 C 1445.80 718.99 1439.58 702.30 1437.13 693.40 A 3.98 3.97 49.1 0 1 1437.32 690.71 C 1441.29 681.66 1444.56 673.17 1446.04 663.58 Q 1446.16 662.83 1446.52 662.26 Z"/><path d=" M 664.29 1237.40 A 0.79 0.79 0.0 0 1 663.93 1238.72 Q 632.36 1246.76 603.48 1251.86 Q 567.29 1258.26 531.50 1258.29 C 511.14 1258.31 492.31 1257.13 472.64 1252.86 Q 456.23 1249.30 444.73 1244.59 C 412.08 1231.22 387.33 1205.98 384.51 1169.45 A 1.11 1.11 0.0 0 1 385.75 1168.26 L 406.59 1170.75 A 2.04 2.04 0.0 0 1 408.37 1172.53 Q 412.66 1207.87 445.03 1222.73 Q 452.27 1226.05 460.26 1228.46 Q 480.42 1234.52 502.00 1235.97 Q 525.99 1237.59 554.73 1235.11 Q 591.81 1231.92 627.09 1222.78 Q 634.29 1220.92 643.23 1218.43 A 2.93 2.92 -30.1 0 1 646.07 1219.18 L 664.29 1237.40 Z"/><path d=" M 412.11 1255.12 A 0.36 0.36 0.0 0 1 412.66 1254.77 Q 430.52 1266.26 450.77 1272.67 C 451.84 1273.02 453.81 1274.61 454.83 1275.72 C 482.56 1305.68 512.36 1333.21 545.34 1357.50 Q 623.95 1415.37 718.26 1443.45 Q 763.85 1457.03 811.06 1463.42 A 1.30 1.29 -89.1 0 1 812.18 1464.58 L 813.85 1482.61 A 0.72 0.71 -89.1 0 1 813.05 1483.38 C 727.40 1473.14 644.79 1444.59 571.50 1399.50 Q 479.83 1343.09 412.82 1256.75 Q 412.21 1255.96 412.11 1255.12 Z"/><path d=" M 1359.92 1255.22 Q 1359.83 1256.06 1359.22 1256.84 Q 1293.41 1342.46 1203.09 1398.61 C 1130.87 1443.51 1049.37 1472.09 964.79 1482.60 A 0.71 0.71 0.0 0 1 964.00 1481.84 L 965.56 1464.01 A 1.28 1.28 0.0 0 1 966.67 1462.86 Q 1013.28 1456.33 1058.27 1442.71 Q 1151.33 1414.53 1228.74 1357.00 C 1261.22 1332.85 1290.54 1305.51 1317.80 1275.77 C 1318.80 1274.68 1320.75 1273.09 1321.81 1272.75 Q 1341.79 1266.32 1359.38 1254.89 A 0.35 0.35 0.0 0 1 1359.92 1255.22 Z"/><path d=" M 817.07 1439.19 L 816.57 1438.97 A 0.80 0.24 16.8 0 1 816.48 1438.91 C 793.19 1419.12 774.50 1395.11 758.65 1368.00 Q 728.25 1316.04 709.17 1258.13 A 0.95 0.94 -9.1 0 1 710.07 1256.89 Q 722.98 1256.85 736.28 1256.85 Q 738.96 1256.85 739.62 1258.84 Q 759.80 1319.33 793.66 1371.86 C 804.20 1388.20 815.94 1403.52 830.53 1416.15 A 1.44 1.44 0.0 0 1 830.67 1418.19 C 825.15 1424.45 821.56 1431.60 818.34 1438.70 A 0.97 0.96 -65.7 0 1 817.07 1439.19 Z"/></g><g id="mark" fill="#269982" stroke="#269982" stroke-width="12" stroke-linejoin="round" stroke-linecap="round"><path d=" M 834.75 1028.34 A 0.31 0.30 -90.0 0 1 834.45 1028.65 L 769.04 1028.65 A 1.36 1.36 0.0 0 1 767.68 1027.29 L 767.68 717.93 A 0.78 0.78 0.0 0 1 768.44 717.15 Q 775.56 716.92 788.25 716.92 Q 859.24 716.91 897.75 716.96 C 919.27 716.99 942.63 720.63 961.71 731.13 C 996.38 750.20 1010.96 783.74 1009.47 823.09 Q 1008.95 836.77 1005.37 848.56 C 997.73 873.67 979.47 895.03 954.83 904.58 A 1.28 1.27 65.3 0 0 954.17 906.37 L 1019.13 1027.41 A 0.81 0.81 0.0 0 1 1018.42 1028.60 L 946.05 1028.60 A 1.86 1.84 76.2 0 1 944.41 1027.60 L 887.73 918.05 A 1.96 1.95 76.1 0 0 886.00 917.00 L 836.02 917.00 A 1.27 1.27 0.0 0 0 834.75 918.27 L 834.75 1028.34 Z M 834.52 772.64 L 835.00 863.24 A 1.04 1.04 0.0 0 0 836.04 864.27 L 895.99 863.96 A 44.95 43.42 -0.3 0 0 940.71 820.30 L 940.68 814.46 A 44.95 43.42 -0.3 0 0 895.51 771.28 L 835.56 771.59 A 1.04 1.04 0.0 0 0 834.52 772.64 Z"/><path d=" M 679.23 1122.29 L 853.28 1122.29 A 0.81 0.81 0.0 0 1 854.09 1123.10 L 854.09 1158.09 A 0.81 0.81 0.0 0 1 853.28 1158.90 L 677.79 1158.90 A 0.81 0.81 0.0 0 0 677.21 1160.28 L 746.34 1229.40 A 0.81 0.81 0.0 0 1 745.76 1230.78 L 695.32 1230.78 A 0.81 0.81 0.0 0 1 694.74 1230.54 L 605.78 1141.58 A 0.81 0.81 0.0 0 1 605.78 1140.44 L 692.01 1054.21 A 0.81 0.81 0.0 0 1 692.59 1053.97 L 743.63 1053.97 A 0.81 0.81 0.0 0 1 744.21 1055.35 L 678.65 1120.91 A 0.81 0.81 0.0 0 0 679.23 1122.29 Z"/><path d=" M 765.68 1071.04 L 781.12 1056.53 A 0.71 0.71 0.0 0 1 781.96 1056.43 L 851.90 1096.82 A 0.71 0.71 0.0 0 1 851.54 1098.14 L 808.57 1098.14 A 0.71 0.71 0.0 0 1 808.20 1098.04 L 765.80 1072.17 A 0.71 0.71 0.0 0 1 765.68 1071.04 Z"/><path d=" M 743.00 1184.89 C 745.20 1184.62 750.81 1184.05 753.01 1183.99 Q 782.88 1183.21 818.83 1183.05 A 0.83 0.82 -77.7 0 1 819.58 1184.23 Q 819.22 1185.00 818.16 1185.44 Q 770.15 1205.13 763.70 1207.73 A 1.70 1.69 57.4 0 1 761.82 1207.31 L 742.39 1186.56 A 1.00 0.99 -25.1 0 1 743.00 1184.89 Z"/></g><g id="nodes" fill="#269982"><circle cx="887.57" cy="290.17" r="58.46"/><ellipse cx="0.00" cy="0.00" transform="translate(468.93,521.20) rotate(-81.1)" rx="59.02" ry="58.09"/><circle cx="1369.06" cy="644.22" r="58.63"/><circle cx="406.12" cy="1092.61" r="58.83"/><circle cx="1238.55" cy="1243.82" r="58.69"/><circle cx="888.03" cy="1467.41" r="58.53"/></g></svg>